<?xml version="1.0" encoding="UTF-8"?><svg xmlns="http://www.w3.org/2000/svg" width="520.8745" height="357.8487" xmlns:xlink="http://www.w3.org/1999/xlink" viewBox="0 0 520.8745 357.8487"><defs><style>.d{stroke:#65c8d0;}.d,.e{fill:none;stroke-miterlimit:10;stroke-width:16px;}.f{fill:url(#c);}.e{stroke:#6f60c1;}</style><linearGradient id="c" x1="260.2934" y1="333.0134" x2="263.0294" y2="-38.4494" gradientUnits="userSpaceOnUse"><stop offset="0" stop-color="#3ddeed"/><stop offset=".0798" stop-color="#6f60c1"/></linearGradient></defs><g id="a"><polyline class="e" points="359.0366 189.2043 409.0366 275.8068 109.0366 275.8068 259.0366 16 309.0366 102.6025"/><polygon class="d" points="219.0366 275.8068 109.0366 275.8068 164.0366 180.544 219.0366 275.8068"/></g><g id="b"><path class="f" d="m40.9219,298.2589c2.2026,2.2969,3.9253,5.0684,5.168,8.3145,1.2422,3.2461,1.8633,6.8379,1.8633,10.7754,0,3.9609-.6328,7.5586-1.8984,10.793s-3.0234,5.9883-5.2734,8.2617c-2.1797,2.25-4.7109,3.9844-7.5938,5.2031s-5.9536,1.8281-9.2109,1.8281c-3.4688,0-6.6743-.6504-9.6152-1.9512-2.9414-1.3008-5.4668-3.1113-7.5762-5.4316-2.1094-2.2734-3.7676-5.0332-4.9746-8.2793-1.2075-3.2461-1.8105-6.7207-1.8105-10.4238,0-4.0547.6328-7.6699,1.8984-10.8457s3.0112-5.9238,5.2383-8.2441c2.2026-2.2969,4.7637-4.0547,7.6816-5.2734s5.9707-1.8281,9.1582-1.8281c3.3047,0,6.4214.6211,9.3516,1.8633,2.9297,1.2422,5.4609,2.9883,7.5938,5.2383Zm-5.2383,35.3672c1.3125-2.1328,2.2676-4.5469,2.8652-7.2422s.8965-5.707.8965-9.0352c0-3.4219-.334-6.5625-1.002-9.4219s-1.647-5.2969-2.9355-7.3125c-1.2891-1.9922-2.9062-3.5449-4.8516-4.6582-1.9458-1.1133-4.1719-1.6699-6.6797-1.6699-2.8125,0-5.2031.6445-7.1719,1.9336s-3.5742,3.0117-4.8164,5.168c-1.1724,2.0625-2.0449,4.4766-2.6191,7.2422-.5747,2.7656-.8613,5.6719-.8613,8.7188,0,3.375.3042,6.4219.9141,9.1406.6094,2.7188,1.5698,5.1328,2.8828,7.2422,1.2656,2.0625,2.8594,3.6738,4.7812,4.834,1.9214,1.1602,4.2188,1.7402,6.8906,1.7402,2.5078,0,4.769-.5859,6.7852-1.7578,2.0156-1.1719,3.6562-2.8125,4.9219-4.9219Z"/><path class="f" d="m85.2539,319.3526c1.0547,1.1719,1.8335,2.4551,2.3379,3.8496.5039,1.3945.7559,3.0176.7559,4.8691,0,4.4062-1.6294,8.0391-4.8867,10.8984-3.2578,2.8594-7.3008,4.2891-12.1289,4.2891-2.2271,0-4.4531-.3457-6.6797-1.0371-2.2271-.6914-4.1484-1.5293-5.7656-2.5137l-1.5117,2.5664h-2.8125l-.4922-17.0859h2.8477c.5854,2.1094,1.271,4.0137,2.0566,5.7129.7852,1.6992,1.8223,3.2871,3.1113,4.7637,1.2183,1.3828,2.6421,2.4844,4.2715,3.3047,1.6289.8203,3.521,1.2305,5.6777,1.2305,1.6172,0,3.0288-.2109,4.2363-.6338,1.207-.4219,2.1851-1.0205,2.9355-1.7949.75-.7744,1.3062-1.6836,1.6699-2.7285.3633-1.0449.5449-2.2471.5449-3.6084,0-1.9951-.5625-3.8545-1.6875-5.5801-1.125-1.7246-2.8008-3.0332-5.0273-3.9248-1.5239-.6064-3.2695-1.2783-5.2383-2.0127-1.9688-.7354-3.6685-1.4297-5.0977-2.084-2.8125-1.2646-4.998-2.9229-6.5566-4.9727-1.5591-2.0498-2.3379-4.7275-2.3379-8.0312,0-1.8975.3867-3.667,1.1602-5.3066.7734-1.6406,1.875-3.1055,3.3047-4.3936,1.3589-1.2188,2.9648-2.1729,4.8164-2.8643,1.8511-.6914,3.7847-1.0371,5.8008-1.0371,2.2969,0,4.3535.3516,6.1699,1.0547,1.8159.7031,3.4746,1.5234,4.9746,2.4609l1.4414-2.3906h2.8125l.2812,16.5586h-2.8477c-.5156-1.8984-1.0957-3.7148-1.7402-5.4492-.645-1.7344-1.4824-3.3047-2.5137-4.7109-1.0078-1.3594-2.2383-2.4434-3.6914-3.252-1.4536-.8086-3.2344-1.2129-5.3438-1.2129-2.2271,0-4.1255.7148-5.6953,2.1445-1.5703,1.4297-2.3555,3.1758-2.3555,5.2383,0,2.1562.5039,3.9434,1.5117,5.3613,1.0073,1.418,2.4727,2.584,4.3945,3.498,1.7104.8203,3.3926,1.5293,5.0449,2.127s3.252,1.2363,4.7988,1.916c1.4062.6094,2.7598,1.3008,4.0605,2.0742s2.4312,1.6758,3.3926,2.707Z"/><path class="f" d="m135.1758,305.8878h-2.4258c-.2114-.8438-.5933-1.8457-1.1455-3.0059-.5518-1.1602-1.168-2.2559-1.8496-3.2871-.7051-1.0781-1.4741-2.0215-2.3081-2.8301-.8335-.8086-1.6387-1.2715-2.4136-1.3887-.7285-.0938-1.644-.1641-2.748-.2109-1.1045-.0469-2.1265-.0703-3.0659-.0703h-2.0435v39.9023c0,.7734.1636,1.4824.4922,2.127.3281.6445.9019,1.1426,1.7227,1.4941.4219.1641,1.3062.3867,2.6543.668,1.3477.2812,2.396.4336,3.1465.457v2.4961h-23.5547v-2.4961c.6558-.0469,1.6577-.1406,3.0059-.2812,1.3477-.1406,2.2793-.3164,2.7949-.5273.7734-.3047,1.3413-.7441,1.7051-1.3184.3633-.5742.5449-1.3418.5449-2.3027v-40.2188h-2.0391c-.7266,0-1.6294.0176-2.707.0527-1.0781.0352-2.1094.1113-3.0938.2285-.7734.0938-1.5767.5566-2.4082,1.3887-.832.832-1.5996,1.7754-2.3027,2.8301s-1.3242,2.1738-1.8633,3.3574c-.5396,1.1836-.9141,2.1621-1.125,2.9355h-2.4609v-13.5352h43.4883v13.5352Z"/><path class="f" d="m160.9453,342.2393h-22.4648v-2.4961c.6328-.0469,1.5469-.1172,2.7422-.2109s2.0391-.2344,2.5312-.4219c.7734-.3047,1.3359-.7207,1.6875-1.248s.5273-1.2598.5273-2.1973v-36.1406c0-.8203-.1289-1.5059-.3867-2.0566-.2583-.5508-.8672-1.0137-1.8281-1.3887-.7031-.2812-1.5879-.5449-2.6543-.791-1.0669-.2461-1.9395-.3926-2.6191-.4395v-2.4961h22.4648v2.4961c-.7266.0234-1.5938.1113-2.6016.2637s-1.8867.3457-2.6367.5801c-.8906.2812-1.4883.7383-1.793,1.3711s-.457,1.3359-.457,2.1094v36.1055c0,.7734.1699,1.459.5098,2.0566s.9199,1.0723,1.7402,1.4238c.4922.1875,1.2949.3926,2.4082.6152s2.0566.3457,2.8301.3691v2.4961Z"/><path class="f" d="m198.2461,319.3526c1.0547,1.1719,1.834,2.4551,2.3379,3.8496s.7559,3.0176.7559,4.8691c0,4.4062-1.6289,8.0391-4.8867,10.8984s-7.3008,4.2891-12.1289,4.2891c-2.2266,0-4.4531-.3457-6.6797-1.0371s-4.1484-1.5293-5.7656-2.5137l-1.5117,2.5664h-2.8125l-.4922-17.0859h2.8477c.5859,2.1094,1.2715,4.0137,2.0566,5.7129s1.8223,3.2871,3.1113,4.7637c1.2188,1.3828,2.6426,2.4844,4.2715,3.3047s3.5215,1.2305,5.6777,1.2305c1.6172,0,3.0293-.2109,4.2363-.6338,1.207-.4219,2.1855-1.0205,2.9355-1.7949s1.3066-1.6836,1.6699-2.7285.5449-2.2471.5449-3.6084c0-1.9951-.5625-3.8545-1.6875-5.5801-1.125-1.7246-2.8008-3.0332-5.0273-3.9248-1.5234-.6064-3.2695-1.2783-5.2383-2.0127-1.9688-.7354-3.668-1.4297-5.0977-2.084-2.8125-1.2646-4.998-2.9229-6.5566-4.9727s-2.3379-4.7275-2.3379-8.0312c0-1.8975.3867-3.667,1.1602-5.3066.7734-1.6406,1.875-3.1055,3.3047-4.3936,1.3594-1.2188,2.9648-2.1729,4.8164-2.8643s3.7852-1.0371,5.8008-1.0371c2.2969,0,4.3535.3516,6.1699,1.0547s3.4746,1.5234,4.9746,2.4609l1.4414-2.3906h2.8125l.2812,16.5586h-2.8477c-.5156-1.8984-1.0957-3.7148-1.7402-5.4492s-1.4824-3.3047-2.5137-4.7109c-1.0078-1.3594-2.2383-2.4434-3.6914-3.252s-3.2344-1.2129-5.3438-1.2129c-2.2266,0-4.125.7148-5.6953,2.1445s-2.3555,3.1758-2.3555,5.2383c0,2.1562.5039,3.9434,1.5117,5.3613s2.4727,2.584,4.3945,3.498c1.7109.8203,3.3926,1.5293,5.0449,2.127s3.252,1.2363,4.7988,1.916c1.4062.6094,2.7598,1.3008,4.0605,2.0742s2.4316,1.6758,3.3926,2.707Z"/><path class="f" d="m253.7578,338.6534c.9375.8906,1.6758,1.8984,2.2148,3.0234s.8086,2.5195.8086,4.1836-.3633,3.2285-1.0898,4.6934-1.8281,2.7363-3.3047,3.8145c-1.5703,1.1016-3.4453,1.957-5.625,2.5664s-4.875.9141-8.0859.9141c-5.25,0-9.1758-.7676-11.7773-2.3027s-3.9023-3.7793-3.9023-6.7324c0-2.3906.9375-4.2773,2.8125-5.6602s4.2656-2.1328,7.1719-2.25v-.4922c-.7031-.2109-1.4297-.4746-2.1797-.791s-1.3945-.6855-1.9336-1.1074c-.6094-.4922-1.1016-1.0723-1.4766-1.7402s-.5625-1.4941-.5625-2.4785c0-1.2422.4395-2.3848,1.3184-3.4277s2.209-1.9395,3.9902-2.6895v-.5273c-2.25-1.0547-3.9961-2.4082-5.2383-4.0605s-1.8633-3.5684-1.8633-5.748c0-3.2812,1.2246-5.9766,3.6738-8.0859s5.584-3.1641,9.4043-3.1641c1.0547,0,2.1035.1055,3.1465.3164s2.1035.4805,3.1816.8086h12.0938v3.375h-8.1562v.2109c.8672,1.0078,1.5117,2.1211,1.9336,3.3398s.6328,2.4141.6328,3.5859c0,3.0469-1.2363,5.625-3.709,7.7344s-5.3496,3.1641-8.6309,3.1641h-4.2539c-.5391.1875-1.1016.5273-1.6875,1.0195s-.8789,1.1602-.8789,2.0039c0,.8672.2461,1.5293.7383,1.9863s1.0898.7676,1.793.9316c.6797.1875,1.4707.3047,2.373.3516s1.834.082,2.7949.1055c1.0312.0234,2.4434.0938,4.2363.2109s3.0645.1875,3.8145.2109c1.0781.0469,2.1621.3047,3.252.7734s2.0801,1.1133,2.9707,1.9336Zm-2.7422,8.5078c0-1.3125-.3047-2.3906-.9141-3.2344s-1.5352-1.418-2.7773-1.7227c-.6562-.0938-2.0039-.1992-4.043-.3164s-4.4062-.1758-7.1016-.1758c-2.5312.4922-4.3301,1.3184-5.3965,2.4785s-1.5996,2.6543-1.5996,4.4824c0,.8203.1758,1.6055.5273,2.3555s.9609,1.4414,1.8281,2.0742c.8203.6094,1.9219,1.1074,3.3047,1.4941s3.0703.5801,5.0625.5801c3.4453,0,6.1582-.6621,8.1387-1.9863s2.9707-3.334,2.9707-6.0293Zm-6.75-29.0742c0-2.7422-.5566-4.9277-1.6699-6.5566s-2.6777-2.4434-4.6934-2.4434c-1.1016,0-2.0449.2285-2.8301.6855s-1.4238,1.1074-1.916,1.9512c-.4688.7734-.8027,1.7051-1.002,2.7949s-.2988,2.209-.2988,3.3574c0,2.6016.5684,4.7227,1.7051,6.3633s2.6074,2.4609,4.4121,2.4609c2.0156,0,3.5684-.8145,4.6582-2.4434s1.6348-3.6855,1.6348-6.1699Z"/><path class="f" d="m291.5151,334.0831c-1.4531,2.7656-3.3984,4.9688-5.8359,6.6094s-5.2383,2.4609-8.4023,2.4609c-2.7891,0-5.2324-.4922-7.3301-1.4766s-3.8262-2.3203-5.1855-4.0078-2.373-3.6562-3.041-5.9062-1.002-4.6289-1.002-7.1367c0-2.25.3574-4.459,1.0723-6.627s1.7637-4.1191,3.1465-5.8535c1.3359-1.6641,2.9941-3.0059,4.9746-4.0254s4.2012-1.5293,6.6621-1.5293c2.5312,0,4.6992.3984,6.5039,1.1953s3.2695,1.8867,4.3945,3.2695c1.0781,1.3125,1.8809,2.8594,2.4082,4.6406s.791,3.7148.791,5.8008v2.3203h-22.957c0,2.2783.2168,4.3457.6504,6.2021.4336,1.8555,1.1191,3.4873,2.0566,4.8975.9141,1.3623,2.1094,2.4375,3.5859,3.2236,1.4766.7871,3.2344,1.1807,5.2734,1.1807,2.0859,0,3.8848-.4893,5.3965-1.4668s2.9707-2.7383,4.377-5.2832l2.4609,1.5117Zm-7.7695-13.2188c0-1.3086-.1113-2.71-.334-4.2051-.2227-1.4961-.5801-2.7461-1.0723-3.751-.5391-1.0752-1.2773-1.9512-2.2148-2.6289s-2.1445-1.0166-3.6211-1.0166c-2.4609,0-4.5059,1.0225-6.1348,3.0664-1.6289,2.0449-2.5137,4.8896-2.6543,8.5352h16.0312Z"/><path class="f" d="m329.3433,324.5557c0,2.4375-.3877,4.834-1.1611,7.1895-.7744,2.3555-1.877,4.3535-3.3076,5.9941-1.6201,1.875-3.4971,3.2695-5.6318,4.1836s-4.5283,1.3711-7.1797,1.3711c-2.2051,0-4.3047-.416-6.2988-1.248s-3.7656-2.0449-5.3145-3.6387c-1.5244-1.5703-2.7393-3.4863-3.6426-5.748s-1.3545-4.7988-1.3545-7.6113c0-5.4141,1.5781-9.8438,4.7334-13.2891s7.291-5.168,12.4053-5.168c4.8564,0,8.8623,1.6348,12.0186,4.9043,3.1553,3.2695,4.7334,7.623,4.7334,13.0605Zm-7.2773.0703c0-1.7578-.1768-3.6152-.5283-5.5723-.3525-1.957-.8809-3.6152-1.585-4.9746-.751-1.4531-1.7383-2.6191-2.959-3.498s-2.7119-1.3184-4.4727-1.3184c-1.8086,0-3.3516.4453-4.6309,1.3359-1.2803.8906-2.3193,2.1094-3.1172,3.6562-.752,1.4297-1.2803,3.0586-1.585,4.8867-.3057,1.8281-.458,3.5977-.458,5.3086,0,2.25.1816,4.3301.5459,6.2402s.9453,3.6152,1.7432,5.1152c.7988,1.5,1.8027,2.6777,3.0117,3.5332s2.7061,1.2832,4.4902,1.2832c2.9346,0,5.2598-1.418,6.9736-4.2539s2.5713-6.75,2.5713-11.7422Z"/><path class="f" d="m393.644,342.2393h-16.875v-2.3203c.5391-.0469,1.084-.0938,1.6348-.1406s1.0371-.1406,1.459-.2812c.6562-.2109,1.1426-.5801,1.459-1.1074s.4746-1.2129.4746-2.0566v-17.8945c0-2.4375-.5566-4.3184-1.6699-5.6426s-2.502-1.9863-4.166-1.9863c-1.1484,0-2.2266.1758-3.2344.5273s-1.9336.8438-2.7773,1.4766c-.6797.5156-1.248,1.0723-1.7051,1.6699s-.8027,1.0957-1.0371,1.4941v20.0039c0,.8203.1406,1.4941.4219,2.0215s.7617.9316,1.4414,1.2129c.5391.2109,1.0254.3691,1.459.4746s1.002.1816,1.7051.2285v2.3203h-16.5234v-2.3203c.5391-.0469,1.0605-.0938,1.5645-.1406s.9668-.1406,1.3887-.2812c.6562-.2109,1.1426-.5801,1.459-1.1074s.4746-1.2129.4746-2.0566v-17.8945c0-2.4375-.5586-4.3184-1.6738-5.6426-1.1172-1.3242-2.5088-1.9863-4.1768-1.9863-1.1514,0-2.2314.1816-3.2412.5449-1.0107.3633-1.9385.8613-2.7842,1.4941-.6816.5156-1.2568,1.0957-1.7266,1.7402-.4707.6445-.8223,1.1309-1.0576,1.459v19.8633c0,.7969.1641,1.4648.4922,2.0039s.8203.9492,1.4766,1.2305c.4922.2344.9961.4102,1.5117.5273s1.0898.1992,1.7227.2461v2.3203h-16.8398v-2.3203c.5391-.0469,1.0957-.0938,1.6699-.1406s1.0723-.1396,1.4941-.2803c.6562-.2109,1.1426-.5791,1.459-1.1064.3164-.5264.4746-1.2119.4746-2.0547v-21.5254c0-.748-.1699-1.4209-.5098-2.0186-.3398-.5967-.8145-1.1064-1.4238-1.5273-.4453-.2812-.9961-.5088-1.6523-.6846s-1.3359-.2871-2.0391-.334v-2.3203l11.6016-.7734.4922.4922v4.957h.2461c.5859-.5859,1.3008-1.2773,2.1445-2.0742s1.6289-1.4414,2.3555-1.9336c.8203-.5625,1.8457-1.0312,3.0762-1.4062s2.5605-.5625,3.9902-.5625c2.25,0,4.1836.6035,5.8008,1.8105s2.7773,2.666,3.4805,4.377c.8418-.8203,1.585-1.541,2.2285-2.1621s1.4912-1.2832,2.5449-1.9863c.8887-.6094,1.9355-1.1016,3.1406-1.4766,1.2061-.375,2.5449-.5625,4.0195-.5625,2.9238,0,5.2412.9609,6.9492,2.8828s2.5625,4.875,2.5625,8.8594v17.6133c0,.8203.1406,1.4941.4219,2.0215s.7617.9316,1.4414,1.2129c.5391.2109,1.0723.3691,1.5996.4746s1.1191.1816,1.7754.2285v2.3203Z"/><path class="f" d="m428.5542,334.0831c-1.4531,2.7656-3.3984,4.9688-5.8359,6.6094s-5.2383,2.4609-8.4023,2.4609c-2.7891,0-5.2324-.4922-7.3301-1.4766s-3.8262-2.3203-5.1855-4.0078-2.373-3.6562-3.041-5.9062-1.002-4.6289-1.002-7.1367c0-2.25.3574-4.459,1.0723-6.627s1.7637-4.1191,3.1465-5.8535c1.3359-1.6641,2.9941-3.0059,4.9746-4.0254s4.2012-1.5293,6.6621-1.5293c2.5312,0,4.6992.3984,6.5039,1.1953s3.2695,1.8867,4.3945,3.2695c1.0781,1.3125,1.8809,2.8594,2.4082,4.6406s.791,3.7148.791,5.8008v2.3203h-22.957c0,2.2783.2168,4.3457.6504,6.2021.4336,1.8555,1.1191,3.4873,2.0566,4.8975.9141,1.3623,2.1094,2.4375,3.5859,3.2236,1.4766.7871,3.2344,1.1807,5.2734,1.1807,2.0859,0,3.8848-.4893,5.3965-1.4668s2.9707-2.7383,4.377-5.2832l2.4609,1.5117Zm-7.7695-13.2188c0-1.3086-.1113-2.71-.334-4.2051-.2227-1.4961-.5801-2.7461-1.0723-3.751-.5391-1.0752-1.2773-1.9512-2.2148-2.6289s-2.1445-1.0166-3.6211-1.0166c-2.4609,0-4.5059,1.0225-6.1348,3.0664-1.6289,2.0449-2.5137,4.8896-2.6543,8.5352h16.0312Z"/><path class="f" d="m453.9722,340.7276c-1.5234.6328-2.9648,1.166-4.3242,1.5996s-3.0234.6504-4.9922.6504c-2.9062,0-4.9512-.7324-6.1348-2.1973s-1.7754-3.5332-1.7754-6.2051v-23.4844h-6.2578v-3.375h6.3984v-10.793h6.3984v10.793h9.9492v3.375h-9.8789v19.3711c0,1.4531.0527,2.666.1582,3.6387s.3574,1.8223.7559,2.5488c.375.6797.9375,1.1953,1.6875,1.5469s1.7578.5273,3.0234.5273c.5859,0,1.4473-.0527,2.584-.1582s1.9395-.2402,2.4082-.4043v2.5664Z"/><path class="f" d="m483.9604,312.0401c0,1.1953-.293,2.2559-.8789,3.1816s-1.4883,1.3887-2.707,1.3887c-1.3125,0-2.3145-.3398-3.0059-1.0195s-1.0371-1.4297-1.0371-2.25c0-.5156.041-.9844.123-1.4062s.1582-.8438.2285-1.2656c-1.1016,0-2.3906.4453-3.8672,1.3359s-2.7305,2.1562-3.7617,3.7969v20.1797c0,.8203.1582,1.4883.4746,2.0039s.8145.9023,1.4941,1.1602c.5859.2344,1.3418.4102,2.2676.5273s1.7285.1992,2.4082.2461v2.3203h-18.2812v-2.3203c.5391-.0469,1.0957-.0938,1.6699-.1406s1.0723-.1396,1.4941-.2803c.6562-.2109,1.1426-.5791,1.459-1.1064.3164-.5264.4746-1.2119.4746-2.0547v-21.3848c0-.7256-.1699-1.4395-.5098-2.1416s-.8145-1.2637-1.4238-1.6855c-.4453-.2812-.9727-.4854-1.582-.6143s-1.2656-.2168-1.9688-.2637v-2.3203l11.5312-.7734.4922.4922v4.8867h.1758c1.4531-1.8984,3.0703-3.3398,4.8516-4.3242s3.4102-1.4766,4.8867-1.4766,2.6777.4805,3.6035,1.4414,1.3887,2.25,1.3887,3.8672Z"/><path class="f" d="m484.2769,353.5596c0-1.1719.3223-2.127.9658-2.8652.6445-.7383,1.4473-1.1074,2.4082-1.1074.75,0,1.3936.1396,1.9336.4189.5391.2783,1.0195.6387,1.4414,1.0811.3506.3486.7256.8252,1.124,1.4297s.7148,1.1045.9492,1.5c1.1719-.6318,2.5713-2.2803,4.2002-4.9463,1.6279-2.666,2.8057-5.0049,3.5332-7.0156-2.2266-5.5527-4.2412-10.5195-6.0459-14.9014-1.8047-4.3809-3.6904-8.915-5.6582-13.6016-.4453-1.0781-1.1953-1.916-2.25-2.5137s-2.1094-.9785-3.1641-1.1426v-2.3203h15.8271v2.4609c-.7031.0234-1.5479.1699-2.5322.4395s-1.4766.5791-1.4766.9307c0,.1406.0527.374.1582.7021s.2295.668.3701,1.0186c.8877,2.3193,2.2432,5.6621,4.0664,10.0293,1.8232,4.3682,3.2373,7.8633,4.2422,10.4854,1.0557-2.5049,2.1533-5.0986,3.291-7.7803,1.1387-2.6816,2.4111-5.8486,3.8193-9.502.1641-.4453.3984-1.0596.7041-1.8438.3047-.7852.457-1.458.457-2.0205,0-.6094-.5332-1.1768-1.5996-1.7041-1.0664-.5264-2.0801-.8486-3.041-.9658v-2.25h12.874v2.1797c-.7031.1172-1.6289.5215-2.7773,1.2129s-2.0039,1.6699-2.5664,2.9355c-2.7891,6.4688-5.2676,12.3633-7.4355,17.6836s-3.8145,9.2344-4.9395,11.7422c-1.4766,3.2812-2.7949,5.8418-3.9551,7.6816s-2.291,3.2871-3.3926,4.3418c-1.0781.9844-2.0566,1.6465-2.9355,1.9863s-1.7871.5098-2.7246.5098c-1.8281,0-3.2637-.4336-4.3066-1.3008s-1.5645-1.8633-1.5645-2.9883Z"/></g></svg>